name rise49.25peak52.1432fall72.8391.mot
datacolumns 19
datarows 27
range 2.95331700000000 2.99665500000000
endheader
time	ground_force1_vx	ground_force1_vy	ground_force1_vz	ground_force1_px	ground_force1_py	ground_force1_pz	ground_force2_vx	ground_force2_vy	ground_force2_vz	ground_force2_px	ground_force2_py	ground_force2_pz	ground_torque1_x	ground_torque1_y	ground_torque1_z	ground_torque2_x	ground_torque2_y	ground_torque2_z	
2.95331700000000	68.89687700000000	800.87682199999995	62.43122300000000	0.35442000000000	0.00000000000000	0.12073300000000	0.00000000000000	0.00000000000000	0.00000000000000	0.00000000000000	0.00000000000000	0.00000000000000	0.00000000000000	27.43710100000000	0.00000000000000	0.00000000000000	0.00000000000000	0.00000000000000	
2.95500200000000	68.36500900000000	803.63293499999997	62.64779400000000	0.35403000000000	0.00000000000000	0.12068500000000	0.00000000000000	0.00000000000000	0.00000000000000	0.00000000000000	0.00000000000000	0.00000000000000	0.00000000000000	27.61344100000000	0.00000000000000	0.00000000000000	0.00000000000000	0.00000000000000	
2.95665300000000	67.82266500000000	806.17577700000004	62.85138200000000	0.35365400000000	0.00000000000000	0.12063800000000	0.00000000000000	0.00000000000000	0.00000000000000	0.00000000000000	0.00000000000000	0.00000000000000	0.00000000000000	27.78349100000000	0.00000000000000	0.00000000000000	0.00000000000000	0.00000000000000	
2.95833500000000	67.27034900000000	808.50455099999999	63.04161200000000	0.35329100000000	0.00000000000000	0.12059100000000	0.00000000000000	0.00000000000000	0.00000000000000	0.00000000000000	0.00000000000000	0.00000000000000	0.00000000000000	27.94689100000000	0.00000000000000	0.00000000000000	0.00000000000000	0.00000000000000	
2.95998500000000	66.70853900000000	810.61884699999996	63.21809600000000	0.35293800000000	0.00000000000000	0.12054500000000	0.00000000000000	0.00000000000000	0.00000000000000	0.00000000000000	0.00000000000000	0.00000000000000	0.00000000000000	28.10327800000000	0.00000000000000	0.00000000000000	0.00000000000000	0.00000000000000	
2.96165400000000	66.13768899999999	812.51864499999999	63.38044000000000	0.35259500000000	0.00000000000000	0.12049900000000	0.00000000000000	0.00000000000000	0.00000000000000	0.00000000000000	0.00000000000000	0.00000000000000	0.00000000000000	28.25228300000000	0.00000000000000	0.00000000000000	0.00000000000000	0.00000000000000	
2.96332400000000	65.55822800000000	814.20432100000005	63.52825100000000	0.35226000000000	0.00000000000000	0.12045400000000	0.00000000000000	0.00000000000000	0.00000000000000	0.00000000000000	0.00000000000000	0.00000000000000	0.00000000000000	28.39353700000000	0.00000000000000	0.00000000000000	0.00000000000000	0.00000000000000	
2.96500000000000	64.97056400000000	815.67665299999999	63.66113800000000	0.35193000000000	0.00000000000000	0.12041000000000	0.00000000000000	0.00000000000000	0.00000000000000	0.00000000000000	0.00000000000000	0.00000000000000	0.00000000000000	28.52667200000000	0.00000000000000	0.00000000000000	0.00000000000000	0.00000000000000	
2.96665500000000	64.37508500000000	816.93681500000002	63.77871800000000	0.35160500000000	0.00000000000000	0.12036600000000	0.00000000000000	0.00000000000000	0.00000000000000	0.00000000000000	0.00000000000000	0.00000000000000	0.00000000000000	28.65132900000000	0.00000000000000	0.00000000000000	0.00000000000000	0.00000000000000	
2.96832300000000	63.77216400000000	817.98638500000004	63.88062200000000	0.35128200000000	0.00000000000000	0.12032300000000	0.00000000000000	0.00000000000000	0.00000000000000	0.00000000000000	0.00000000000000	0.00000000000000	0.00000000000000	28.76715300000000	0.00000000000000	0.00000000000000	0.00000000000000	0.00000000000000	
2.96999100000000	63.16215400000000	818.82734000000005	63.96649700000000	0.35096000000000	0.00000000000000	0.12028100000000	0.00000000000000	0.00000000000000	0.00000000000000	0.00000000000000	0.00000000000000	0.00000000000000	0.00000000000000	28.87380300000000	0.00000000000000	0.00000000000000	0.00000000000000	0.00000000000000	
2.97165100000000	62.54539600000000	819.46205399999997	64.03601200000000	0.35063600000000	0.00000000000000	0.12024000000000	0.00000000000000	0.00000000000000	0.00000000000000	0.00000000000000	0.00000000000000	0.00000000000000	0.00000000000000	28.97095100000000	0.00000000000000	0.00000000000000	0.00000000000000	0.00000000000000	
2.97332000000000	61.92222100000000	819.89329199999997	64.08886099999999	0.35030900000000	0.00000000000000	0.12019900000000	0.00000000000000	0.00000000000000	0.00000000000000	0.00000000000000	0.00000000000000	0.00000000000000	0.00000000000000	29.05828600000000	0.00000000000000	0.00000000000000	0.00000000000000	0.00000000000000	
2.97500000000000	61.29294800000000	820.12420799999995	64.12476900000000	0.34997700000000	0.00000000000000	0.12016000000000	0.00000000000000	0.00000000000000	0.00000000000000	0.00000000000000	0.00000000000000	0.00000000000000	0.00000000000000	29.13551700000000	0.00000000000000	0.00000000000000	0.00000000000000	0.00000000000000	
2.97665000000000	60.65788800000000	820.15833399999997	64.14349300000001	0.34963700000000	0.00000000000000	0.12012100000000	0.00000000000000	0.00000000000000	0.00000000000000	0.00000000000000	0.00000000000000	0.00000000000000	0.00000000000000	29.20237300000000	0.00000000000000	0.00000000000000	0.00000000000000	0.00000000000000	
2.97831700000000	60.01734900000000	819.99957400000005	64.14482599999999	0.34928900000000	0.00000000000000	0.12008300000000	0.00000000000000	0.00000000000000	0.00000000000000	0.00000000000000	0.00000000000000	0.00000000000000	0.00000000000000	29.25860900000000	0.00000000000000	0.00000000000000	0.00000000000000	0.00000000000000	
2.97998800000000	59.37163100000000	819.65219100000002	64.12860300000000	0.34892800000000	0.00000000000000	0.12004600000000	0.00000000000000	0.00000000000000	0.00000000000000	0.00000000000000	0.00000000000000	0.00000000000000	0.00000000000000	29.30400600000000	0.00000000000000	0.00000000000000	0.00000000000000	0.00000000000000	
2.98165300000000	58.72103600000000	819.12080100000003	64.09469799999999	0.34855500000000	0.00000000000000	0.12000900000000	0.00000000000000	0.00000000000000	0.00000000000000	0.00000000000000	0.00000000000000	0.00000000000000	0.00000000000000	29.33837200000000	0.00000000000000	0.00000000000000	0.00000000000000	0.00000000000000	
2.98331700000000	58.06586200000000	818.41035499999998	64.04303299999999	0.34816600000000	0.00000000000000	0.11997400000000	0.00000000000000	0.00000000000000	0.00000000000000	0.00000000000000	0.00000000000000	0.00000000000000	0.00000000000000	29.36154800000000	0.00000000000000	0.00000000000000	0.00000000000000	0.00000000000000	
2.98498500000000	57.40641000000000	817.52612799999997	63.97357600000000	0.34776000000000	0.00000000000000	0.11994000000000	0.00000000000000	0.00000000000000	0.00000000000000	0.00000000000000	0.00000000000000	0.00000000000000	0.00000000000000	29.37340400000000	0.00000000000000	0.00000000000000	0.00000000000000	0.00000000000000	
2.98665000000000	56.74298300000000	816.47370599999999	63.88634400000000	0.34733400000000	0.00000000000000	0.11990700000000	0.00000000000000	0.00000000000000	0.00000000000000	0.00000000000000	0.00000000000000	0.00000000000000	0.00000000000000	29.37384500000000	0.00000000000000	0.00000000000000	0.00000000000000	0.00000000000000	
2.98832100000000	56.07588700000000	815.25896399999999	63.78140300000000	0.34688700000000	0.00000000000000	0.11987500000000	0.00000000000000	0.00000000000000	0.00000000000000	0.00000000000000	0.00000000000000	0.00000000000000	0.00000000000000	29.36280800000000	0.00000000000000	0.00000000000000	0.00000000000000	0.00000000000000	
2.98999300000000	55.40543600000000	813.88805600000001	63.65887300000000	0.34641700000000	0.00000000000000	0.11984400000000	0.00000000000000	0.00000000000000	0.00000000000000	0.00000000000000	0.00000000000000	0.00000000000000	0.00000000000000	29.34026900000000	0.00000000000000	0.00000000000000	0.00000000000000	0.00000000000000	
2.99166100000000	54.73194700000000	812.36739299999999	63.51892300000000	0.34592200000000	0.00000000000000	0.11981400000000	0.00000000000000	0.00000000000000	0.00000000000000	0.00000000000000	0.00000000000000	0.00000000000000	0.00000000000000	29.30623600000000	0.00000000000000	0.00000000000000	0.00000000000000	0.00000000000000	
2.99332100000000	54.05574600000000	810.70362499999999	63.36177500000000	0.34539900000000	0.00000000000000	0.11978500000000	0.00000000000000	0.00000000000000	0.00000000000000	0.00000000000000	0.00000000000000	0.00000000000000	0.00000000000000	29.26075800000000	0.00000000000000	0.00000000000000	0.00000000000000	0.00000000000000	
2.99500100000000	53.37716500000000	808.90362300000004	63.18770400000000	0.34484700000000	0.00000000000000	0.11975800000000	0.00000000000000	0.00000000000000	0.00000000000000	0.00000000000000	0.00000000000000	0.00000000000000	0.00000000000000	29.20391700000000	0.00000000000000	0.00000000000000	0.00000000000000	0.00000000000000	
2.99665500000000	52.69654700000000	806.97445600000003	62.99703600000000	0.34426500000000	0.00000000000000	0.11973100000000	0.00000000000000	0.00000000000000	0.00000000000000	0.00000000000000	0.00000000000000	0.00000000000000	0.00000000000000	29.13583300000000	0.00000000000000	0.00000000000000	0.00000000000000	0.00000000000000	
